<?xml version="1.0" encoding="utf-8"?>
<svg viewBox="0 0 315 310.4" shape-rendering="geometricPrecision" text-rendering="geometricPrecision" xmlns="http://www.w3.org/2000/svg">
  <g transform="matrix(0.3712779879570007, 0, 0, 0.3975610136985778, 2.345946108489425, 86.87860236881079)" style="">
    <g>
      <path d="M157.3,130.8c4,23.9,7.1,52,7.5,83.4.4,36.8-3,69.3-7.5,96.2-.1-.1-.3-.1-.4-.2-47.1-47.1-99.7-65.4-156.3-61.9l-.6-.2L0,68.5c3.3-.2,6.7-.4,10-.4c4.2-.1,5.9.2,9.9,0c4.5-.1,7.8-.5,8.5-.6c4.3-.4,35-1.2,68.9,14.5c31.8,14.8,51,36.9,60,48.8Z" fill="#fe669a"/>
      <path d="M251.1,52.2v0-17.3c-40.9,7.4-76.8,37.4-93.4,95.3l.1.5C169,116,184.9,98.3,206.6,81.1c15.9-12.6,31.2-22,44.5-28.9Z" fill="#fe669a"/>
      <path d="M157.8,130.7l32.8,127.7.3-.2c23.4-46.5,56.5-70.8,97.1-78.2l.4-.3L257.2,73c-35.2,8.1-68.5,26.7-99.4,57.7Z" fill="#fe669a"/>
    </g>
    <g>
      <path d="M157.2,130.6l.1-.5c-16.7-57.8-52.6-87.9-93.4-95.3v17.3v0c14.1,8.2,30,18.7,46.4,32.1c19.5,16.2,35,32.3,46.9,46.4Z" fill="#003f6e"/>
      <path d="M157.7,130.8c0,59.9,0,119.7,0,179.6l.4-.2c47.1-47.1,99.7-65.4,156.3-61.9l.6-.2v-179.6c-5.9-.4-11.7-.5-17.5-.4-1.3,0-2.2.1-2.5.1-4.6.1-6.9.2-21.5-.2-8-.2-14.8,1.9-27.8,5.9-7.5,2.3-22.2,6.9-39.5,16.8-22.3,12.7-38.1,28-48.5,40.1Z" fill="#003f6e"/>
    </g>
    <g>
      <path d="M247.7,184c-12.6,0-22.7-10.2-22.7-22.7c0-9.7,6.1-17.9,14.6-21.2-5.8-2.9-12.4-4.6-19.4-4.6-24,0-43.4,19.4-43.4,43.4s19.4,43.4,43.4,43.4s43.4-19.4,43.4-43.4c0-.4-.1-.9-.1-1.3-4.1,4-9.7,6.4-15.8,6.4Z" fill="#fff"/>
      <path d="M241.3,158.6c0,5.5-4.5,10-10,10s-10-4.5-10-10s4.5-10,10-10s10,4.4,10,10" fill="#fff"/>
      <path d="M115.6,184c-12.6,0-22.7-10.2-22.7-22.7c0-9.7,6.1-17.9,14.6-21.2-5.8-2.9-12.4-4.6-19.4-4.6-24,0-43.4,19.4-43.4,43.4s19.4,43.4,43.4,43.4s43.4-19.4,43.4-43.4c0-.4-.1-.9-.1-1.3-4.1,4-9.7,6.4-15.8,6.4Z" fill="#fff"/>
      <path d="M109.2,158.6c0,5.5-4.5,10-10,10s-10-4.5-10-10s4.5-10,10-10s10,4.4,10,10" fill="#fff"/>
      <path d="M175.6,228.7c0,10-8.1,18.1-18.1,18.1s-18.1-8.1-18.1-18.1" fill="none" stroke="#fff" stroke-width="5.225" stroke-miterlimit="10"/>
    </g>
    <g>
      <polygon points="188.6,18.5 188.6,53.3 126.4,53.3 126.4,18.5 141.9,37.1 157.5,18.5 173.1,37.1" fill="#ffce02"/>
      <path d="M133.4,7c0,3.9-3.1,7-7,7v-14c3.8,0,7,3.1,7,7" fill="#ffce02"/>
      <path d="M164.6,7.1c0,3.9-3.1,7-7,7s-7-3.1-7-7s3.1-7,7-7s7,3.2,7,7" fill="#ffce02"/>
      <path d="M188.6,0v14c-3.9,0-7-3.1-7-7s3.2-7,7-7" fill="#ffce02"/>
      <path d="M157.3,130.8C120.6,68.5,69.8,44.3,20.1,47.9v20.2c49.4,1.5,95.4,20.8,137.2,62.7Z" fill="#ffce02"/>
      <path d="M294.9,47.9c-49.8-3.7-100.6,20.6-137.3,82.9c41.8-41.9,87.9-61.2,137.3-62.7v-20.2Z" fill="#ffce02"/>
    </g>
  </g>
  <text dx="0" dy="0" font-family="&quot;eZtQch5VI0M1:::Baloo Bhaijaan 2&quot;" font-size="50" font-weight="700" transform="matrix(0.6849660277366638, 0, 0, 0.6664640307426452, 123.798578199723, 169.64552559920435)" fill="#fe669a" stroke-width="0" style="white-space: pre;"><tspan y="0" font-family="&quot;eZtQch5VI0M1:::Baloo Bhaijaan 2&quot;" font-size="50" font-weight="700" font-style="normal" fill="#fe669a" stroke-width="0">

FRENCHY

</tspan></text>
</svg>